<?xml version="1.0" encoding="UTF-8"?>
<svg width="700pt" height="700pt" version="1.1" fill="white" viewBox="0 0 700 700" xmlns="http://www.w3.org/2000/svg">
 <path d="m227.5 542.5c-4.6602 0.027344-9.1406-1.8047-12.445-5.0938-3.3047-3.2891-5.1602-7.7578-5.1562-12.422 0.003906-4.6602 1.8672-9.125 5.1758-12.41l232.75-232.57-232.75-232.57c-3.293-3.2969-5.1445-7.7656-5.1445-12.426s1.8516-9.1289 5.1445-12.426c3.2969-3.293 7.7656-5.1445 12.426-5.1445s9.1289 1.8516 12.426 5.1445l245 245c3.2578 3.2812 5.0898 7.7148 5.0898 12.34 0 4.6211-1.832 9.0586-5.0898 12.336l-245 245c-3.2734 3.3398-7.75 5.2305-12.426 5.25z"/>
</svg>
