<svg width="24" height="24" viewBox="0 0 24 24" fill="none" xmlns="http://www.w3.org/2000/svg">
<path fill-rule="evenodd" clip-rule="evenodd" d="M6.4443 20.3147C8.08879 21.4135 10.0222 22 12 22C14.6522 22 17.1957 20.9464 19.0711 19.0711C20.9464 17.1957 22 14.6522 22 12C22 10.0222 21.4135 8.08879 20.3147 6.4443C19.2159 4.79981 17.6541 3.51809 15.8268 2.76121C13.9996 2.00433 11.9889 1.8063 10.0491 2.19215C8.10929 2.578 6.32746 3.53041 4.92894 4.92894C3.53041 6.32746 2.578 8.10929 2.19215 10.0491C1.8063 11.9889 2.00433 13.9996 2.76121 15.8268C3.51809 17.6541 4.79981 19.2159 6.4443 20.3147ZM7.18506 4.79393C8.61029 3.84163 10.2859 3.33334 12 3.33334C14.2985 3.33334 16.5029 4.24643 18.1283 5.87174C19.7536 7.49706 20.6667 9.70146 20.6667 12C20.6667 13.7141 20.1584 15.3897 19.2061 16.8149C18.2538 18.2402 16.9002 19.351 15.3166 20.007C13.733 20.6629 11.9904 20.8345 10.3092 20.5001C8.62805 20.1657 7.0838 19.3403 5.87174 18.1283C4.65969 16.9162 3.83427 15.372 3.49987 13.6908C3.16546 12.0096 3.33709 10.267 3.99305 8.68341C4.64901 7.09979 5.75984 5.74624 7.18506 4.79393ZM11.5266 12.4734L14.8266 15.7734L15.7733 14.8267L12.6666 11.7267V6.66675H11.3333V12.0001C11.3328 12.0878 11.3496 12.1748 11.3827 12.256C11.4159 12.3372 11.4648 12.4111 11.5266 12.4734Z" fill="white"/>
</svg>
