<?xml version="1.0" encoding="UTF-8"?>
<svg width="700pt" height="700pt" version="1.1" viewBox="0 0 700 700" xmlns="http://www.w3.org/2000/svg">
 <g>
  <path d="m350 0c-154.65 0-280 125.35-280 280s125.35 280 280 280 280-125.35 280-280-125.35-280-280-280zm0 542.5c-144.74 0-262.5-117.76-262.5-262.5s117.76-262.5 262.5-262.5 262.5 117.76 262.5 262.5-117.76 262.5-262.5 262.5z"/>
  <path d="m345.68 176.57-12.371-12.371-116.38 116.38 9.4844 9.4844v0.24609h0.24609l106.64 106.62 12.371-12.371-94.27-94.254h245.68v-17.5h-247.62z"/>
 </g>
</svg>
